Land_normalized_Motion_pl11
version=1
nRows=14
nColumns=43
inDegrees=yes
endheader
time		pelvis_tilt		pelvis_list		pelvis_rotation		pelvis_tx		pelvis_ty		pelvis_tz		hip_flexion_r		hip_adduction_r		hip_rotation_r		knee_angle_r		ankle_angle_r		subtalar_angle_r		mtp_angle_r		hip_flexion_l		hip_adduction_l		hip_rotation_l		knee_angle_l		ankle_angle_l		subtalar_angle_l		mtp_angle_l		lumbar_extension		lumbar_bending		lumbar_rotation		neck_flexion		neck_lateral_bending		neck_rotation		arm_flex_r		arm_add_r		arm_rot_r		elbow_flex_r		pro_sup_r		wrist_flex_r		wrist_dev_r		hand_finger_flex_r		arm_flex_l		arm_add_l		arm_rot_l		elbow_flex_l		pro_sup_l		wrist_flex_l		wrist_dev_l		hand_finger_flex_l		
2.115000		-0.155131		2.038233		93.929408		-0.024179		0.946486		0.547349		30.394898		-10.361659		-16.453853		-34.991300		-22.104419		-0.923388		27.342976		32.259691		-3.244220		-10.422623		-39.280375		-16.094979		3.034776		30.729087		-26.117363		3.119541		0.500043		-33.289468		1.627227		-3.078053		-67.861034		-16.692322		-27.184910		33.109074		143.419281		1.008068		-8.315543		-17.470714		-83.021732		-13.201204		-37.110686		44.450160		139.235242		-8.922394		-0.000047		-22.443371		
2.118131		-0.026399		1.871064		93.804052		-0.023771		0.933480		0.543338		31.351149		-10.226592		-15.944684		-36.301379		-22.027205		-1.005675		27.615540		33.355809		-3.553721		-10.180126		-40.934875		-15.784267		3.710279		31.664158		-26.141863		3.191725		0.584920		-32.580923		1.578009		-3.018679		-67.100074		-16.896043		-27.022759		33.000446		143.515085		0.134428		-8.465757		-17.096391		-82.157973		-13.281692		-36.368303		44.154234		138.465345		-10.216764		-0.042585		-22.549949		
2.121263		-0.040866		2.187336		93.775472		-0.023609		0.921467		0.539148		31.677366		-10.268029		-15.612416		-37.433770		-22.259742		-0.994496		27.666866		33.786800		-3.645613		-9.909055		-42.276345		-15.993666		3.821020		31.805888		-26.695666		3.189050		0.489999		-32.027699		1.415401		-2.966946		-66.240545		-17.138586		-27.059055		33.103854		143.489119		-0.018340		-8.406406		-17.036419		-81.330166		-13.204932		-36.189906		44.353130		138.393169		-10.381096		-0.030901		-22.576995		
2.124394		-0.056285		2.466744		93.706662		-0.023493		0.909267		0.534872		32.025270		-10.293429		-15.266809		-38.463335		-22.538377		-0.974771		27.721409		34.253283		-3.730222		-9.616320		-43.570508		-16.272494		3.972965		31.946685		-27.199956		3.179305		0.438931		-31.473606		1.311019		-2.920497		-65.414663		-17.386632		-27.092230		33.280945		143.454892		-0.234567		-8.380660		-16.996404		-80.460732		-13.140910		-35.997557		44.557303		138.340678		-10.610349		-0.049549		-22.644752		
2.127525		-0.051081		2.761079		93.665087		-0.023317		0.896989		0.530514		32.377010		-10.290761		-14.883983		-39.500750		-22.819531		-0.924881		27.783758		34.702327		-3.834242		-9.335429		-44.798376		-16.639439		4.132657		32.044685		-27.700024		3.190465		0.368320		-31.070347		1.222212		-2.883572		-64.586201		-17.632235		-27.143554		33.513703		143.403665		-0.476535		-8.376903		-16.998944		-79.590224		-13.102898		-35.823027		44.804893		138.319853		-10.850178		-0.112418		-22.732803		
2.130657		0.057399		2.594083		93.565933		-0.022916		0.883804		0.527059		33.314578		-10.054503		-14.048209		-40.465993		-22.900629		-0.820576		28.183925		35.693426		-4.009556		-8.962177		-45.806388		-17.232711		4.477919		32.568767		-27.876157		3.264973		0.417764		-29.657352		1.016410		-2.776641		-63.697012		-17.834003		-27.076797		33.758464		143.053138		-1.351992		-8.454061		-16.860747		-78.547987		-13.120543		-35.502151		44.853852		138.076132		-11.866822		-0.410264		-22.991943		
2.133788		0.082154		2.339643		93.332662		-0.022639		0.870413		0.523010		34.338096		-9.914968		-13.380718		-41.592456		-22.032143		-0.809535		28.978771		36.729248		-4.131846		-8.734805		-46.916027		-17.128001		4.723628		33.601161		-27.807980		3.218897		0.527103		-29.099730		0.871771		-2.773685		-62.880254		-18.131865		-26.861302		33.894927		142.339427		-2.487696		-8.564679		-16.417082		-77.555985		-13.217158		-34.966309		44.798713		137.489800		-13.051780		-0.895198		-23.045573		
2.136919		0.115482		2.523344		93.333770		-0.022342		0.857792		0.519117		34.803545		-9.768228		-12.785135		-42.879799		-20.031914		-0.952449		29.358905		37.274851		-4.131238		-8.281231		-47.991149		-16.249544		4.933893		34.018819		-28.288019		3.255304		0.436594		-28.227687		0.703738		-2.710982		-61.910825		-18.361576		-26.926939		34.246257		141.985193		-2.883404		-8.563894		-16.281848		-76.577637		-13.202743		-34.900928		45.246393		137.230479		-13.409620		-0.977219		-22.953346		
2.140051		0.119727		2.574378		93.228520		-0.022285		0.844850		0.515191		35.409772		-9.655063		-12.260370		-44.450425		-16.447922		-0.988635		29.773629		37.943229		-4.101358		-7.892980		-49.266674		-14.127699		5.474447		34.535051		-28.608060		3.254991		0.457677		-27.397187		0.614213		-2.674327		-61.026094		-18.626728		-26.996034		34.601948		141.461307		-3.482493		-8.634664		-16.191197		-75.570898		-13.228716		-34.727434		45.670076		136.950470		-14.004782		-1.232077		-22.882045		
2.143182		0.109958		2.513345		93.124377		-0.021779		0.831586		0.511030		36.215143		-9.604718		-11.864327		-46.617292		-11.370790		-0.028462		29.953861		38.728687		-4.178942		-7.614421		-50.889878		-10.538706		7.117881		35.236535		-28.714389		3.159620		0.476637		-27.044380		0.640783		-2.655258		-60.206740		-18.868527		-26.695261		34.998829		140.262697		-4.518199		-8.825810		-15.894551		-74.692637		-13.420001		-34.315164		46.017054		136.316620		-15.103093		-1.723569		-22.525227		
2.146313		0.144761		2.507494		93.016074		-0.021394		0.818449		0.507244		36.953727		-9.481643		-11.539571		-48.994349		-5.710793		0.439412		28.000346		39.508424		-4.217620		-7.213740		-52.816466		-6.179929		8.179869		34.891275		-29.001558		3.135869		0.500021		-26.047237		0.578904		-2.564617		-59.214440		-19.307056		-25.844490		35.206238		138.201023		-5.857964		-8.806604		-15.137284		-73.573572		-13.600771		-33.809662		46.232151		135.336368		-16.556998		-2.017830		-21.443339		
2.149444		0.179422		2.589652		92.932528		-0.021048		0.805428		0.503362		37.626416		-9.323676		-11.232516		-51.609898		0.095894		0.375042		25.799512		40.171437		-4.230301		-6.801059		-54.977826		-1.163562		8.996487		34.177810		-29.340934		3.119728		0.503204		-25.332021		0.579074		-2.465573		-58.244650		-19.664305		-25.386783		35.565166		136.714889		-7.002724		-8.833616		-14.600655		-72.575475		-13.763368		-33.426402		46.717275		134.870441		-17.769601		-2.352415		-20.622486		
2.152576		0.287064		2.685180		92.837965		-0.020688		0.792414		0.499678		38.357183		-9.110407		-11.035943		-54.513514		6.350861		1.244424		14.878745		40.860024		-4.312679		-6.369838		-57.447588		4.459334		9.873988		26.614748		-29.764296		3.155123		0.401492		-24.200925		0.570110		-2.431820		-57.126232		-20.313877		-24.208652		35.822548		134.122928		-8.656234		-8.940320		-13.758159		-71.480426		-13.840907		-32.930576		47.003891		134.661067		-19.452401		-2.657227		-18.795029		
2.155707		0.258603		2.865556		92.691666		-0.020269		0.779795		0.496014		39.090161		-9.030810		-10.978652		-57.285241		10.754056		0.029120		14.908350		41.358841		-4.238601		-6.048412		-59.786296		9.205400		9.359414		26.699436		-30.268052		3.072508		0.518971		-23.348563		0.418420		-2.223606		-55.928457		-20.467403		-24.509235		36.192058		134.120907		-8.953775		-8.923520		-13.889987		-70.363938		-14.009269		-32.912939		47.765958		134.772065		-19.803666		-2.858790		-18.948792		
